<svg xmlns="http://www.w3.org/2000/svg" xml:space="preserve" viewBox="0 0 144 144"><path fill="#009cad" d="M136 144H8c-4.4 0-8-3.6-8-8V8c0-4.4 3.6-8 8-8h128c4.4 0 8 3.6 8 8v128c0 4.4-3.6 8-8 8z"/><path fill="#fff" d="M133.6 48s-.5-2.4-1.4-2.1c-.5.2-2.1-.4-3.3-1l-1.7-.8-5.4.1c-.5-.1-3.5 0-5.5.7 0 0 3.2-.3 7 .8.2.1.3.1.4.2-1.1.4-7.8 1.7-8.7 1.7-1.4 0 4.5.5 7.7.3l-2.1 2c-.2.2-3.6 1.7-4.2 2.2-.8.3 2.2-.2 2.2-.2-.6.3-2.6 1.1-3.4 1.2 0 0 .6.8 1.5 1-1.2.3-3.1.7-3.6.7 0 0 1 .2 1.6.6-1 .1-1.9.3-2.5.5-.7-.8-2-2.6-1.9-4.2l5.5-12.2c.8 1.7 2.1 2.9 1.6 2.2-.4-.5-.7-1.8-1-2.9l-.1-.6 1.7-3.8.3-.2h.4l.7.4c.3.5.9 1.4 1.4 1.8.2.8.6 1.7 1 2.4 0 0-.7-2.5-.2-3.9-1.5-.7-2.4-3.5-2.4-3.5l-1.2.5c-.5 0-1.1-.1-1.4-.1-.9-.4-1.7-.8-2.2-1-3.6-1.8-14.2-6.8-27.7-9.2C70 18.7 28 18.3 18 19.7c-9.9 1.5-5.9 1.2-5.9 1.2s19.1 2.3 36.5 8.2c-17.5 1.5-35.2 3.3-35.2 3.3l-8.2 2c3.2-.4 7.1-.6 11.4-.7 2.6.2 5.7.4 9.1.7l10.4 1.8C77.7 43.6 52 61 52 61l-1.9 1.6c14-8.3 24.5-8.3 24.5-8.3 11 .7 3.4 15.3 3.4 15.3 8.7-8.8 17.7-10 22.7-9.8 1.2.2 2.5.5 3.5 1-.3.3-2 2.2-2.3 2.5L94.2 65c-.6.6 5.1 0 4.5.5-.8.6.3.3-.5.9-.7.5-6.2.8-6.9 1.2-.7.4 3.9.7 3.2 1-.7.3-.5.3-.5.3s-.2.1-.5.2c-.7.2-8.4.3-9.1.5-.6.2 3.8 1.4 3.1 1.6-7 1.7-7.7 3.9-17.7.8-.8 0-4.9-3.6-5.6-3.7-.7 0 2.1 3.4 1.5 3.4-.5 0-6.9-3.1-7.3-3.1-1.6-.2 3.4 2.7 3.4 2.7-1.1-.2-1.7-.6-2.7-.7-.8-.1-6.8-2.3-7.5-2.4-.4 0 3.5 2.2 3.1 2.2-1.5-.1-2.4-.2-3.7-.2-.9 0-6.8-1.5-7.6-1.5-.8.1 3.6 1.7 2.9 1.8-3.6.4-5.8 1.1-5.8 1.1-4.8 1.7-1.1 1.1-1.1 1.1 16-2.8 21.6 1.2 29 3.5C85 81.3 101.8 71 101.8 71l-1.1 2.1c.3 2.1-2.1 4.2-2.1 4.2l-1.4.2-1-.8-1.3 1.3-.4 2.3c-.1.3-.4 1.5-.7 2.7-2.2.9-4.4 2.2-6.3 3.8-10.3 8.6-11.6 23.9-3 34.2s24 11.6 34.3 3l.3-.3c-8.5 5.3-20.2 3.4-27.1-4.9-7.6-9-6.8-22.2 1.8-29.4s21.8-5.7 29.4 3.3c1 1.2 1.9 2.5 2.6 3.8-.9-2.4-2.2-4.6-4-6.6-5.7-6.8-14.3-9.7-22.5-8.4 0-1.9 2.3-3.1 2.3-3.1l3.6-.2c4.5-2 6.5-6.1 6.5-6.1.6-2.2.5-3.8.3-4.7l5.1-3.6c.6 0 1-.1 1.3-.1h1.5l1.2.2.8-.3h.3l.1-.2 5.7-2.1-.3 2.2 1.8-1.3c.1.2.6.6.3 1.7-.1.5 1.3-1 1.3-1l.5-.6c.1.4.1.8.1.8l.6-1.6.4-1-2.9-2.4-6 .7c-.1.1-.3.3-.5.4.6-1.1 1.1-2.5 1.1-2.5l.2-3.5 1.9-2.4 1-.4c.4.2 1 .3 1.5.3.3.1.9.3 1.1.5l.4.2 1.4-1.1h-.8.1-.6v-.2l-.4.1c-.7-.5-1.6-1.6-1.6-1.6l1.1-1.2h1.5c.1 0 .6.1.6.1l.5.7.2-.4c.8.2.7.8.7.8l.4-.6zM98.1 79.4 97 80.8c.5-.8 1.1-1.4 1.1-1.4zm30.3-33.1-1.5.3-1.5-1.3 3.3.7-.3.3z"/></svg>