<svg xmlns="http://www.w3.org/2000/svg" fill="none" viewBox="0 0 32 32"><path fill="#0098FF" d="M6.122 23.503c.679 4.576 1.49 8.015 6.781 6.302 5.075-1.634 9.957-4.54 14.245-7.835 1.537-1.318 4.216-3.178 4.269-5.362-.053-2.193-2.733-4.045-4.27-5.365-4.291-3.294-9.17-6.194-14.244-7.838-5.29-1.708-6.102 1.733-6.78 6.305a60.33 60.33 0 0 0 0 13.793Z"/><path fill="#F80" d="M1.505 10.564c.58-3.027 1.451-5.224 5.353-4.47a24.17 24.17 0 0 0-.736 3.616 60.565 60.565 0 0 0 0 13.793c.154 1.221.4 2.43.736 3.615-3.9.754-4.77-1.443-5.353-4.47l-.04-.216-.078-.438c-.49-3.575-.49-7.2 0-10.776l.078-.437.04-.217Z"/><path fill="#43E700" d="M6.858 6.093c.27.053.556.118.87.204 4.734 1.282 9.293 3.548 13.297 6.12 1.43 1.033 3.932 2.48 3.98 4.192-.048 1.713-2.552 3.16-3.98 4.19-4.004 2.573-8.563 4.841-13.296 6.12a8.715 8.715 0 0 1-.87.205 24.25 24.25 0 0 1-.737-3.617 60.33 60.33 0 0 1 0-13.793c.154-1.215.397-2.416.73-3.595l.006-.026Z"/><path fill="#fff" d="M9.65 12.258s-.29.47-.29 4.358c0 3.887.29 4.332.29 4.332.098.482.29.636.817.513 0 0 .871-.135 4.35-1.905 3.478-1.77 4.058-2.438 4.058-2.438.374-.378.474-.63 0-1.021 0 0-.956-.883-4.059-2.492-3.102-1.608-4.349-1.86-4.349-1.86-.427-.122-.702.017-.817.514Z"/></svg>