<svg xmlns="http://www.w3.org/2000/svg" fill="none" viewBox="0 0 64 64"><path fill="currentColor" fill-rule="evenodd" d="M47.29 35.769c0 8.334-6.757 15.091-15.092 15.091s-15.092-6.757-15.092-15.09V17.893a1.51 1.51 0 0 1 1.356-1.502l27.165-2.716a1.51 1.51 0 0 1 1.663 1.502v20.592zm-.755-25.936a4.46 4.46 0 0 0-.45.023L17.41 12.723a4.528 4.528 0 0 0-4.077 4.505v18.54c0 10.42 8.446 18.865 18.865 18.865 10.419 0 18.865-8.446 18.865-18.864V14.36c0-2.5-2.027-4.528-4.528-4.528zm-6.414 9.493c-.051 0-.102.003-.152.008l-15.842 1.584a1.51 1.51 0 0 0-1.361 1.502v13.349a9.432 9.432 0 0 0 18.864 0V20.835c0-.833-.675-1.509-1.509-1.509z" clip-rule="evenodd"/></svg>